# xmcd
#
# Track frame offsets: 
#        150
#        20837
#        32140
#        49457
#        67057
#        88115
#        109585
#        125565
#        141747
#        158835
#        175907
#        194570
#        215812
#        230810
#        246642
#        259767
#
# Disc length: 3740 seconds
#
# Revision: 5
# Processed by: cddbd v1.5.2PL0 Copyright (c) Steve Scherf et al.
# Submitted via: ExactAudioCopy v0.99pb5
#
DISCID=0a0e9a10
DTITLE=Pussycat - Premium Gold Collection
DYEAR=1994
DGENRE=Vocal
TTITLE0=Mississippi
TTITLE1=Georgie
TTITLE2=Smile
TTITLE3=My Broken Souvenirs
TTITLE4=I'll Be Your Woman
TTITLE5=If You Ever Come To Amsterdam
TTITLE6=It's The Same Old Song
TTITLE7=Wet Day In September
TTITLE8=Hey Joe
TTITLE9=Daddy
TTITLE10=Doin'La Bamba
TTITLE11=Then The Music Stopped
TTITLE12=Une Chambre Pour La Nuit
TTITLE13=Teenage Queenie
TTITLE14=Lovers Of A Kind
TTITLE15=Mississippi (Deutsche Originalaufnahme)
EXTD=YEAR: 1994
EXTT0=
EXTT1=
EXTT2=
EXTT3=
EXTT4=
EXTT5=
EXTT6=
EXTT7=
EXTT8=
EXTT9=
EXTT10=
EXTT11=
EXTT12=
EXTT13=
EXTT14=
EXTT15=
PLAYORDER=
